<svg width="32" height="32" viewBox="0 0 32 32" fill="none" xmlns="http://www.w3.org/2000/svg">
  <defs>
    <linearGradient id="grad1" x1="0%" y1="0%" x2="100%" y2="100%">
      <stop offset="0%" style="stop-color:#2dd4bf;stop-opacity:1" />
      <stop offset="100%" style="stop-color:#22d3ee;stop-opacity:1" />
    </linearGradient>
  </defs>
  <path d="M4 16H8C8.55228 16 9 15.5523 9 15V17C9 17.5523 8.55228 18 8 18H4" stroke="url(#grad1)" stroke-width="2.5" stroke-linecap="round" stroke-linejoin="round"/>
  <path d="M28 16H24C23.4477 16 23 16.4477 23 17V15C23 14.4477 23.4477 14 24 14H28" stroke="url(#grad1)" stroke-width="2.5" stroke-linecap="round" stroke-linejoin="round"/>
  <path d="M9 16C10.5 16 11.5 12 13 12C14.5 12 15.5 20 16 20C16.5 20 17.5 12 19 12C20.5 12 21.5 16 23 16" stroke="url(#grad1)" stroke-width="2.5" stroke-linecap="round" stroke-linejoin="round"/>
  <circle cx="16" cy="16" r="2" fill="url(#grad1)"/>
</svg>
